/* XPM */
static char *_bbb08f14c2e411cfe6361603318cc4aN0TfDrJeN1WrbbkI[] = {
/* columns rows colors chars-per-pixel */
"64 64 29 1 ",
"  c #351E14",
". c #072911",
"X c #073414",
"o c #0B3016",
"O c #0B3C19",
"+ c #3C271E",
"@ c #3C281F",
"# c #4C2B1C",
"$ c #4C2C1D",
"% c #6D3E29",
"& c #0A4B1D",
"* c #114520",
"= c #105625",
"- c #0F6B29",
"; c #19642E",
": c #1B6530",
"> c #187C35",
", c #7B513F",
"< c #7B5240",
"1 c #990030",
"2 c #9C5A3C",
"3 c #B0755B",
"4 c #259043",
"5 c #269144",
"6 c #22B14C",
"7 c #36CF61",
"8 c #E5AA7A",
"9 c #99D9EA",
"0 c white",
/* pixels */
"99999999999XXX99999999999999999999999999XXX999999999999999999999",
"99999999999X4X99999999999999999999999999X4X999999999999999999999",
"99999999999X4X99999999999999999999999999X4X999999999999999999999",
"9999999999X444X999999999999999999999999X444X99999999999999999999",
"9999999999X44*X999999999999999999999999X44*X99999999999999999999",
"9999999999X74*X999999999999999999999999X74*X9999999XXX9999999999",
"999999999X474**X9999999XXX999999999999X474**X999999X4X9999999999",
"999999999X4744*X9999999X4X999999999999X4744*X999999X4X9999999999",
"999999999X4744*X9999999X4X999999999999X4744*X99999X444X999999999",
"99XXX999X47744**X99999X444X9999999999X47744**X9999X44*X999999999",
"99X4X999X47744**X99999X44*X9999999999X47744**X9999X74*X999999999",
"99X4XX99X47744**X99999X74*X9999X&XX99X47744**X999X474**X99999999",
"9X444X9X47*744***X999X474**X999X&6X9X47*744***XXXX4744*XXXX99999",
"9X44*X9X47*******X999X4744*X999X&6X9X47*******X4XX4744*XX4X99999",
"9X74*X;X477******X999X4744*X99X&666;X477******X4X47744**X4X99999",
"X474**X447744444**X9X47744**X9X&76=X447744444X444X7744*X444X9999",
"X4744*X477444444**X9X47744**XX&676=O477444444X44*X7744*X44*X9999",
"X4744*X477444444**X9X47744**XX&676>O477444444X74*X*744*X74*X999X",
"47744**X77***44****X47*744***X6776O4777***44X474**X***X474**X99X",
"47744**X77*********X47*******X6776O4777*****X4744*X***X474&XX99X",
"47744**X7744444477*X477******X7=76O477744444X4744*X444X474&6X9X4",
"7*744***X744444477**X7744444**X==O477774444X47744**X4X4774&6XXX4",
"7*******X777777777**X7444444**X7=O477777777X47744**X4X477&666;X4",
"77******X77777777***X7444444**X76O4777&XX77X4774&XXX*X477&76=X44",
"7744444**X********4**X***44****XO47774&6X*X47*74&6X*X47*&676=O47",
"7444444**X4******444*X*********XO47777&6X*X47***&6X*X47*&676>O47",
"7444444**X444***4444*X44444477*XO4777&666;X477*&666;X47&6776O477",
"7***44****X444444444*X44444477**X4777&76=X44774&76=X447&6776O477",
"7*********X777744444**X7777777**X777&676=O4774&676=O47&67=76O477",
"744444477*X77744444***X777777***X777&676>O4774&676>O47&67==O4777",
"744444477**X774744****X*******4**X7&6776O4777&6776O47&6777=O4777",
"777777777**X*777****4**X*****444*X7&6776O4777&6776O47&67776O4777",
"77777777***X*******444*X4***4444*X&67=76O477&67=76O4&66776O47774",
"*********4**X****4444**X44444444*X&67==O4777&67==O47&67776O47777",
"44******444*X444444***X777744444*&6777=O477&6777=O4&667776O47777",
"7444***4444*X4444****X777744444**&67776O477&67776O4&667777O47777",
"77444444444*X*******X777774744**&66776O477&66776O47X=677=o477777",
"77777744444**X*****X44***777****&67776O477&67776O477X=777.477777",
"7777744444***X***XX7444********&667776O47&667776O4777X=77o477747",
"777774744****X@XX7777444*****44&667777O47&667777O47777X=o4777744",
"4***777****4**X4477477777444444X=677=o477X=677=o4777777Xo4777774",
"44********444*Xo4474777744444***X=777.4777X=777.47777777o4777777",
"444*****4444**X2o44477744*******XX=77o47774X=77o4777;**77o447747",
"7777444444***X@2%o4-4444*******X**X=o4777744X=o4777744****o44747",
"77744444****X<@2%#oX*********XX****Xo47777744Xo47777744****o4447",
"7744*******X3,+#2#88XX@@<@@XXX@@<@@Xo477777744o4777777444555o4-4",
"444*******X,3,+8888888+3<<@888+3<<@88o447747777o4477477755555oX*",
"********XX+++++8888888+33<@888+33<@88#o447477777o4474777555554*X",
"X@@<@@XX88888888888888@<3<@888@<3<@88#2o444777477o44477544******",
"8+3<<@8888888888888888@<3<@888@33<@88#2%o4-4444777o4-4444*******",
"8+33<@8888888888888888@33<@888+,3,+88#2%#oX********oX*********XX",
"8@<3<@8888888888888888+,3,+888+,3,+88##$#88XX@@%  *X:XX@@<@@XX88",
"8@<3<@8888888888888888+,3,+888+++++8888888888+3<<@88888+3<<@8888",
"8@33<@8888888888888888+++++888888888888888888+33<@88888+33<@8888",
"8+,3,+888888888888888888888888888888888888888@<3<@88888@<3<@8888",
"8+,3,+888888888888888888888888888888888888888@<3<@88888@<3<@8888",
"8+++++888888888888888888888888888888888888888@33<@88888@33<@8888",
"888888888888888888888888888888888888888888888+,3,+88888+,3,+8888",
"888888888888888888888888888888888888888888888+,3,+88888+,3,+8888",
"888888888888888888888888888888888888888888888+++++88888+++++8888",
"0000000000111111111111111111111111111111111110000000000000000000",
"0000000000000011111111111111111111111111111111111000000000000000",
"0000000000000000001111111111111111111111111111111111000000000000",
"0000000000000000000000111111111111111111111111111111111100000000"
};
