/* XPM */
static char *_990fa10a45542bde0e70d3d32b6182eXa3x5IW0ufVAbtZc[] = {
/* columns rows colors chars-per-pixel */
"64 64 221 2 ",
"   c #0E0000",
".  c #290000",
"X  c #360000",
"o  c #390000",
"O  c #220010",
"+  c #000023",
"@  c #00002A",
"#  c #190228",
"$  c #27032B",
"%  c #300D31",
"&  c #351B35",
"*  c #3D1D32",
"=  c #3E2232",
"-  c #392939",
";  c #450000",
":  c #550000",
">  c #623A00",
",  c #4E0C2B",
"<  c #411F33",
"1  c #660130",
"2  c #432332",
"3  c #462935",
"4  c #412B3B",
"5  c #523236",
"6  c #663A35",
"7  c #783E34",
"8  c #6C4000",
"9  c #6B4237",
"0  c #2C657B",
"q  c #5F4940",
"w  c #77645D",
"e  c #557A7F",
"r  c #8B2C00",
"t  c #8D4B38",
"y  c #A15D3B",
"u  c #956036",
"i  c #A96E3D",
"p  c #8A784F",
"a  c #AB6E4A",
"s  c #826A78",
"d  c #B97A7D",
"f  c #6D897D",
"g  c #BB813B",
"h  c #D19A32",
"j  c #8D8158",
"k  c #B68F52",
"l  c #B39965",
"z  c #BC847D",
"x  c #BD8A7E",
"c  c #CE974F",
"v  c #D4A955",
"b  c #F2BD5E",
"n  c #D69D6E",
"m  c #C3877C",
"M  c #C38C7C",
"N  c #C5947C",
"B  c #CB9679",
"V  c #D49C76",
"C  c #C4AD73",
"Z  c #D7A877",
"A  c #DDAC74",
"S  c #D3A37A",
"D  c #DAB77A",
"F  c #E5AE6D",
"G  c #EEBD64",
"H  c #E9B56A",
"J  c #EDBD6A",
"K  c #F2BD64",
"L  c #F2BD68",
"P  c #E2BA75",
"I  c #F4C25C",
"U  c #F5C95E",
"Y  c #F9C95B",
"T  c #DDC27D",
"R  c #EEC165",
"E  c #EDC26D",
"W  c #F3C265",
"Q  c #F3CA66",
"!  c #F2C368",
"~  c #F5CC6A",
"^  c #F8D867",
"/  c #F3D26B",
"(  c #F9D46A",
")  c #FBDC6B",
"_  c #EAC472",
"`  c #E8CA77",
"'  c #F1CF72",
"]  c #EED173",
"[  c #EAD67B",
"{  c #F2D472",
"}  c #F5DB75",
"|  c #FADB73",
" . c #FFE067",
".. c #FCE36E",
"X. c #EFE37D",
"o. c #FBE573",
"O. c #F9E877",
"+. c #557B80",
"@. c #5B7C81",
"#. c #5E6F90",
"$. c #5D7091",
"%. c #66748E",
"&. c #616F92",
"*. c #647292",
"=. c #687690",
"-. c #6E7C92",
";. c #717E92",
":. c #8D7687",
">. c #84779C",
",. c #8B7D9B",
"<. c #937B92",
"1. c #977F9A",
"2. c #A9768C",
"3. c #B47581",
"4. c #598280",
"5. c #6F8A8B",
"6. c #748294",
"7. c #7A8793",
"8. c #7A8696",
"9. c #798895",
"0. c #7E8C97",
"q. c #7B8798",
"w. c #7A8C9B",
"e. c #7F8E99",
"r. c #6B88A5",
"t. c #7D86A0",
"y. c #768EA4",
"u. c #7B8BA2",
"i. c #7690A4",
"p. c #7C93A5",
"a. c #949481",
"s. c #808D97",
"d. c #8F819B",
"f. c #808D99",
"g. c #8F8C98",
"h. c #93859B",
"j. c #988199",
"k. c #95899B",
"l. c #998A9A",
"z. c #839198",
"x. c #84929A",
"c. c #83939D",
"v. c #83949C",
"b. c #84959D",
"n. c #89969B",
"m. c #84989F",
"M. c #9A9799",
"N. c #B98481",
"B. c #BE8980",
"V. c #BD9884",
"C. c #AA9391",
"Z. c #A99A95",
"A. c #A49A99",
"S. c #95A29E",
"D. c #9AA49C",
"F. c #9EAA9E",
"G. c #9FB19E",
"H. c #BDA08B",
"J. c #A5A89A",
"K. c #A1AA9D",
"L. c #B4A996",
"P. c #BBAE95",
"I. c #A9B59C",
"U. c #BDB294",
"Y. c #B8BB99",
"T. c #8496A1",
"R. c #8996A2",
"E. c #859BA4",
"W. c #8A9CA2",
"Q. c #8BA1A3",
"!. c #94A3A2",
"~. c #9AA7A3",
"^. c #9FB3A0",
"/. c #93A5B2",
"(. c #99A9B5",
"). c #C18C80",
"_. c #C49382",
"`. c #C69D83",
"'. c #D0A384",
"]. c #C9B68B",
"[. c #D7B883",
"{. c #C2B593",
"}. c #C4B994",
"|. c #C9BC94",
" X c #C4B699",
".X c #BDC198",
"XX c #CCC38C",
"oX c #D9CB8A",
"OX c #D6D38D",
"+X c #DCD28C",
"@X c #DAD88B",
"#X c #C2C397",
"$X c #CDC493",
"%X c #C4CB96",
"&X c #CBCA93",
"*X c #C4C299",
"=X c #D2C694",
"-X c #D1CB91",
";X c #CED292",
":X c #DDD393",
">X c #D9D893",
",X c #E7D988",
"<X c #E2D692",
"1X c #E3DA93",
"2X c #EADA90",
"3X c #E8E185",
"4X c #EBE38D",
"5X c #F5E784",
"6X c #FDEA85",
"7X c #F4E58C",
"8X c #F6E88E",
"9X c #FCED8C",
"0X c #FEF28A",
"qX c #ECE392",
"wX c #EEE890",
"eX c #F5E891",
"rX c #F9EB91",
"tX c #FBF091",
"yX c #E9ECA9",
"uX c #EBF1AB",
"iX c white",
/* pixels */
"$.$.#.$.$.$.$.$.$.$.$.$.$.$.$.$.$.$.$.$.$.$.#.$.$.$.$.$.$.$.#.$.#.#.$.$.$.$.$.$.$.$.$.$.$.$.$.$.$.$.$.$.$.$.$.$.$.$.$.$.$.$.$.$.",
"$.#.#.#.#.#.#.$.$.#.#.#.#.#.#.#.#.#.#.#.#.#.#.#.#.#.#.#.#.#.#.#.#.#.#.#.#.#.#.#.#.#.#.#.#.#.$.#.#.#.$.$.#.#.#.#.#.$.#.#.#.#.#.$.",
"$.#.#.#.#.#.#.#.#.#.#.#.#.#.#.#.#.#.#.#.#.#.#.#.#.#.#.#.#.#.#.#.#.#.#.#.#.#.#.#.#.#.#.#.#.#.&.#.#.#.#.#.#.#.#.#.#.#.#.#.#.#.#.&.",
"*.*.*.&.#.&.&.&.&.&.&.&.&.&.&.&.#.#.#.&.&.&.#.#.#.#.&.&.&.&.&.&.&.&.#.#.&.&.&.#.#.#.#.#.#.#.&.&.&.#.#.#.&.&.&.&.&.&.&.&.&.&.&.*.",
"*.*.*.&.&.*.*.&.*.&.&.&.&.&.&.&.&.&.&.&.&.&.&.*.*.*.&.&.&.&.&.&.*.*.*.*.&.&.&.&.*.$.*.*.*.&.&.&.&.*.*.*.*.*.*.&.&.&.&.&.&.&.&.*.",
"*.*.*.*.*.*.*.*.*.*.*.*.*.*.*.*.*.*.=.*.*.*.*.*.*.*.*.*.*.*.*.*.=.=.=.=.=.*.*.*.*.*.*.*.*.*.*.*.*.*.*.*.*.*.*.*.*.*.*.*.*.*.*.=.",
"*.*.*.*.=.=.=.*.*.*.*.*.=.=.%.%.%.%.%.=.*.*.*.*.*.*.*.*.*.*.*.*.*.=.=.=.=.*.*.*.*.*.*.=.=.=.*.*.*.*.*.*.=.=.=.=.=.=.*.*.*.*.*.=.",
"-.-.-.-.-.;.-.-.-.-.-.-.-.-.-.-.-.-.-.-.-.-.-.-.-.-.-.-.-.-.-.-.-.-.-.-.-.-.-.-.-.-.-.-.-.-.-.-.-.-.-.-.-.-.-.-.-.-.-.-.-.-.-.;.",
"6.6.6.6.6.6.6.6.6.6.6.6.6.6.6.6.6.6.6.6.6.6.6.6.6.6.6.6.6.6.6.6.6.6.6.6.6.6.6.6.6.6.6.6.6.6.6.6.6.6.6.6.6.6.6.6.6.6.6.6.6.6.6.8.",
"8.8.8.9.8.8.9.8.8.8.8.8.8.8.6.6.6.6.6.6.6.8.8.8.8.8.8.8.8.8.8.8.8.8.8.6.8.8.8.8.8.8.8.6.6.6.6.8.8.6.8.8.8.8.8.8.8.8.9.8.8.8.9.0.",
"s.s.s.e.e.e.e.e.e.e.f.f.e.e.s.f.f.e.e.e.e.f.s.s.e.e.e.e.s.s.e.e.e.e.e.e.0.e.e.e.e.e.e.e.e.0.e.e.e.e.e.0.0.e.f.f.e.e.0.s.s.x.0.9.",
"8.8.q.9.9.9.9.9.9.9.9.9.9.9.9.9.9.8.8.9.9.9.8.8.8.8.6.8.7.7.9.8.9.9.9.9.9.9.9.8.9.9.9.9.9.9.9.9.8.9.9.9.9.9.8.8.9.9.9.9.9.6.n.&X",
"z.z.z.z.z.z.z.z.z.z.z.z.z.z.z.x.z.z.z.z.z.z.z.z.z.z.z.z.z.z.z.z.z.x.z.x.z.z.z.z.x.x.x.x.z.x.x.x.x.x.x.x.z.z.z.z.z.z.x.e.x.;X5X..",
"c.c.c.z.z.z.z.z.c.c.c.c.z.z.v.v.v.v.v.v.c.v.v.v.c.c.c.c.v.v.v.c.c.c.c.v.z.c.c.c.c.b.b.v.v.v.v.c.c.c.c.z.z.z.c.c.v.v.v.w.%X..U b ",
"T.T.T.T.b.T.T.T.T.T.T.T.T.b.b.m.m.T.T.T.T.b.m.E.T.T.T.T.m.m.T.T.T.T.b.b.b.T.T.T.T.T.T.T.T.b.E.T.T.T.T.b.b.T.T.T.T.n.w.K.O.I ! ! ",
"E.E.E.E.E.E.E.E.E.E.E.E.E.E.E.E.E.E.E.E.E.E.E.E.E.E.E.E.E.E.E.E.E.E.E.E.E.E.E.E.E.E.E.E.E.E.E.E.E.E.E.E.E.E.E.E.E.W.p.&X^ G ! ! ",
"E.E.E.E.E.E.E.E.E.E.E.E.E.E.E.E.E.E.E.E.E.E.E.E.E.E.E.E.E.E.E.E.E.E.E.E.E.E.E.E.E.E.E.E.E.E.E.E.E.E.E.E.E.E.E.E.W.W.r.XXY K ! ! ",
"E.E.E.E.E.E.E.E.E.E.E.E.E.E.E.E.E.E.E.E.E.E.E.E.E.E.E.E.E.E.E.E.E.E.E.E.E.E.E.E.E.E.E.E.E.E.E.E.E.E.E.E.E.E.E.E.i.Q.>X[ I ! ! ! ",
"E.E.E.E.T.T.E.E.E.W.W.W.W.E.E.E.E.E.E.E.E.E.E.E.E.E.E.E.E.E.E.E.E.E.E.E.E.E.E.E.E.E.E.W.W.E.E.E.E.E.E.E.E.E.T.E.;X3X) Q ! K W W ",
"E.E.E.E.E.E.E.W.E.p.y.i.y.p.W.E.E.E.E.E.E.E.E.E.E.E.E.E.E.E.E.E.E.E.E.E.E.E.E.E.E.p.p.p.p.p.p.E.E.E.E.E.E.E.p..X) I G W ! J J G ",
"E.E.E.E.E.E.E.T.W.;X@XOX;XI.p.W.E.E.E.E.E.E.E.E.E.E.E.E.E.E.E.E.E.E.E.E.E.E.E.E.T.%X,XoXOX@XI.p.W.E.E.E.E.E.Q.[ I G K F B z z _.",
"p.W.E.E.E.E.E.E.@X .E P _ } J.T.W.E.E.E.E.E.E.E.E.E.E.E.E.E.E.E.E.E.E.E.E.E.W.p.Y...Y Q E P D M.E.W.E.E.E.T.Q.] I Q ' ` D ` ` [ ",
"&XT.W.W.E.W.p.I.( n 3.3.d M V.W.W.W.E.E.E.E.E.E.E.E.E.E.E.E.E.E.E.E.E.E.E.E.W.r.XXY H F V m z g.i.T.E.E.W.E.!.` I R Q Q Q ( ^ ! ",
"[ I.i.W.E.W.p.Y.Q B B P A B N.n.E.W.W.W.W.W.E.E.E.E.E.E.E.E.E.E.E.E.E.E.E.E.W.^.OXY G Q E S N L.I.F.E.W.i.y.W.` I ! W W W W G H ",
"M oXF.T.W.T.y.oXY G Q ! V z B.].XXXX*X*X*XY.W.W.W.W.W.W.E.E.E.E.E.E.E.W.T.E.3Xo.( W ! ! K J W E D S M.p..X.XG.[ b ! F V S V M M ",
"z M H.T.E.~.I.[ I K F A Z N `.`._.l.T.R.T.T.T.T.T.p.p.p.T.E.E.T.E.W.W.W.E.>X) K K ! ! ! W ! J A m m g.%XO.) } / K J A V V V S S ",
"z z x n.%XO.} E B z ].<X-X&X5X} } @XI.!.~.!.~.~.!.I.3X&X!.~.~.~.W.p.p.r.I.) b ! ! K ! H B M z B.).z oXo.b G K G K K ! W W W W ! ",
"S M x ,XO.U R J A Z _ ..O.o.Q G R ( ` XX&X-X*X*X#X&XOX-X#X*X*X*XS.F.&X#XOXQ K ! K ! ! J A Z A Z S M D / G ! ! ! ! R R R ! ! ! ! ",
"M d `.{ b K K K K W K K G n m m m d d 2.H.P.u.y.T.p.u.u.T.T.u.r.W.5X^ ( ( W K ! ~ K K K K W W F V ).Z J ~ K K K L L L L K K K K ",
"oXD T { / / ] ] { { { ] _ _ D [.[.T T [.[.{..XY.W.W.W.W.W.T.I.%X;X) b L K ! ' } o./ ' ' ' ' ' ` _.P v u k } { ' ' ' ' ' { ` ] | ",
".._ D A `.Z.M.M.J.I.K.D.V.V.V.J.K.I.I.K.F.K.K.F.W.E.T.T.T.T.,X) ~ R K K K ! P Z V H.S.D.D.D.D.S.M.v O @ @ C S N N V.J.S.S.&XX.( ",
"H B B B M `.Z.n.R.R.T.S.U.M.g.n.T.T.T.T.T.T.T.T.W.W.S.S.p.Y.) G G W ! ! W ! W A V C.T.T.T.E.T.T.M.a 7 6 + l '.z ).C.T.T.&Xo.Q K ",
"Z M N.B.B.M N oXwXqXqX4X4XqXqXqXqXqXqXqXqXqXqXqXeXqX&X-X3X:XoX5X5X+X+X+X+X+X+XoXoX4XwXqX7XqXqXqX7Xc t = % q C 7X7X7XrX7X) W K ! ",
"_.N ).B.z N.3.V.&X$X$X$X$X2X9X9X9X9X9X0X2X$X$X|.L.A.,.,.Z.h.>.A.A.t.u.u.u.u.u.u.f.A.L.Z.$X9X9X9Xo.i , # 2 $ $ p p p [ | K W K K ",
"D D ` ` ,X,X,X7X9X9X9X9X9X9X9X9X7X2X2X9X9X9X0X9X<X<X2X1X:X<X,X:X:X:X:X1X1X1X1X1X<X:X:X:X<X8XtX6Xg + 5 y 6 & 2 # # + & ` | { { ( ",
")._.].{.Z.{.-X$X}.|.{.{.{.{.|.{.Z.M.M. X$X|.{.}.=X=X$X$XU.|.1X,X9X9X9X9X9X9X9X9X9X0X9X9X0XO.R c 5 % a y < * 2 3 3 3 $ p k 9 j l ",
"|.}.l.,.,.l.P.P.{.l.>.,.,.>.A. X{.{.{.U.U.A.>.l.P.P.$X{.U.P.|.4X9X8X9X9X8X8X8X8X8X8X9X0X| k 1 $ = 3 t 2 & < * 2 2 * = % # $ # + ",
"d.d.h.k.h.h.h.h.h.h.k.k.k.k.h.h.d.d.d.h.h.h.k.h.h.h.l.,.l.L.Z.U.=X8X9X9X9X9X8X9X0X9X| Q i @ - 3 * * % = 2 * * 7 6 & * = 2 2 3 3 ",
"k.k.h.h.h.k.k.k.k.k.h.h.h.h.k.k.k.k.k.k.k.h.h.k.k.k.h.U.1XtXrXrXrXrXrXrXrXrX0X( k j t 1 % 4 3 4 4 4 4 - 4 4 4 4 4 - - - 4 - 3 5 ",
"<.<.<.<.<.<.<.<.<.<.<.<.<.<.<.<.<.<.<.j.w w 1.:.s <.<.C.,X6X6X6X6X6X6X6X6X/ h r ;     . o o ; X X X . 8 > . o X X X X o o X ; : ",
"/././././././././././././././././././.(.5.4./.Q.5./.(./.(.yXuXyXyXyXyXuXyXa.0 +.+.@.e @.+.5.5.e @.+.@.a.f e @.@.@.@.@.@.@.@.+.+.",
"iXiXiXiXiXiXiXiXiXiXiXiXiXiXiXiXiXiXiXiXiXiXiXiXiXiXiXiXiXiXiXiXiXiXiXiXiXiXiXiXiXiXiXiXiXiXiXiXiXiXiXiXiXiXiXiXiXiXiXiXiXiXiXiX",
"iXiXiXiXiXiXiXiXiXiXiXiXiXiXiXiXiXiXiXiXiXiXiXiXiXiXiXiXiXiXiXiXiXiXiXiXiXiXiXiXiXiXiXiXiXiXiXiXiXiXiXiXiXiXiXiXiXiXiXiXiXiXiXiX",
"iXiXiXiXiXiXiXiXiXiXiXiXiXiXiXiXiXiXiXiXiXiXiXiXiXiXiXiXiXiXiXiXiXiXiXiXiXiXiXiXiXiXiXiXiXiXiXiXiXiXiXiXiXiXiXiXiXiXiXiXiXiXiXiX",
"iXiXiXiXiXiXiXiXiXiXiXiXiXiXiXiXiXiXiXiXiXiXiXiXiXiXiXiXiXiXiXiXiXiXiXiXiXiXiXiXiXiXiXiXiXiXiXiXiXiXiXiXiXiXiXiXiXiXiXiXiXiXiXiX",
"iXiXiXiXiXiXiXiXiXiXiXiXiXiXiXiXiXiXiXiXiXiXiXiXiXiXiXiXiXiXiXiXiXiXiXiXiXiXiXiXiXiXiXiXiXiXiXiXiXiXiXiXiXiXiXiXiXiXiXiXiXiXiXiX",
"iXiXiXiXiXiXiXiXiXiXiXiXiXiXiXiXiXiXiXiXiXiXiXiXiXiXiXiXiXiXiXiXiXiXiXiXiXiXiXiXiXiXiXiXiXiXiXiXiXiXiXiXiXiXiXiXiXiXiXiXiXiXiXiX",
"iXiXiXiXiXiXiXiXiXiXiXiXiXiXiXiXiXiXiXiXiXiXiXiXiXiXiXiXiXiXiXiXiXiXiXiXiXiXiXiXiXiXiXiXiXiXiXiXiXiXiXiXiXiXiXiXiXiXiXiXiXiXiXiX",
"iXiXiXiXiXiXiXiXiXiXiXiXiXiXiXiXiXiXiXiXiXiXiXiXiXiXiXiXiXiXiXiXiXiXiXiXiXiXiXiXiXiXiXiXiXiXiXiXiXiXiXiXiXiXiXiXiXiXiXiXiXiXiXiX",
"iXiXiXiXiXiXiXiXiXiXiXiXiXiXiXiXiXiXiXiXiXiXiXiXiXiXiXiXiXiXiXiXiXiXiXiXiXiXiXiXiXiXiXiXiXiXiXiXiXiXiXiXiXiXiXiXiXiXiXiXiXiXiXiX",
"iXiXiXiXiXiXiXiXiXiXiXiXiXiXiXiXiXiXiXiXiXiXiXiXiXiXiXiXiXiXiXiXiXiXiXiXiXiXiXiXiXiXiXiXiXiXiXiXiXiXiXiXiXiXiXiXiXiXiXiXiXiXiXiX",
"iXiXiXiXiXiXiXiXiXiXiXiXiXiXiXiXiXiXiXiXiXiXiXiXiXiXiXiXiXiXiXiXiXiXiXiXiXiXiXiXiXiXiXiXiXiXiXiXiXiXiXiXiXiXiXiXiXiXiXiXiXiXiXiX",
"iXiXiXiXiXiXiXiXiXiXiXiXiXiXiXiXiXiXiXiXiXiXiXiXiXiXiXiXiXiXiXiXiXiXiXiXiXiXiXiXiXiXiXiXiXiXiXiXiXiXiXiXiXiXiXiXiXiXiXiXiXiXiXiX",
"iXiXiXiXiXiXiXiXiXiXiXiXiXiXiXiXiXiXiXiXiXiXiXiXiXiXiXiXiXiXiXiXiXiXiXiXiXiXiXiXiXiXiXiXiXiXiXiXiXiXiXiXiXiXiXiXiXiXiXiXiXiXiXiX",
"iXiXiXiXiXiXiXiXiXiXiXiXiXiXiXiXiXiXiXiXiXiXiXiXiXiXiXiXiXiXiXiXiXiXiXiXiXiXiXiXiXiXiXiXiXiXiXiXiXiXiXiXiXiXiXiXiXiXiXiXiXiXiXiX",
"iXiXiXiXiXiXiXiXiXiXiXiXiXiXiXiXiXiXiXiXiXiXiXiXiXiXiXiXiXiXiXiXiXiXiXiXiXiXiXiXiXiXiXiXiXiXiXiXiXiXiXiXiXiXiXiXiXiXiXiXiXiXiXiX",
"iXiXiXiXiXiXiXiXiXiXiXiXiXiXiXiXiXiXiXiXiXiXiXiXiXiXiXiXiXiXiXiXiXiXiXiXiXiXiXiXiXiXiXiXiXiXiXiXiXiXiXiXiXiXiXiXiXiXiXiXiXiXiXiX",
"iXiXiXiXiXiXiXiXiXiXiXiXiXiXiXiXiXiXiXiXiXiXiXiXiXiXiXiXiXiXiXiXiXiXiXiXiXiXiXiXiXiXiXiXiXiXiXiXiXiXiXiXiXiXiXiXiXiXiXiXiXiXiXiX",
"iXiXiXiXiXiXiXiXiXiXiXiXiXiXiXiXiXiXiXiXiXiXiXiXiXiXiXiXiXiXiXiXiXiXiXiXiXiXiXiXiXiXiXiXiXiXiXiXiXiXiXiXiXiXiXiXiXiXiXiXiXiXiXiX",
"iXiXiXiXiXiXiXiXiXiXiXiXiXiXiXiXiXiXiXiXiXiXiXiXiXiXiXiXiXiXiXiXiXiXiXiXiXiXiXiXiXiXiXiXiXiXiXiXiXiXiXiXiXiXiXiXiXiXiXiXiXiXiXiX",
"iXiXiXiXiXiXiXiXiXiXiXiXiXiXiXiXiXiXiXiXiXiXiXiXiXiXiXiXiXiXiXiXiXiXiXiXiXiXiXiXiXiXiXiXiXiXiXiXiXiXiXiXiXiXiXiXiXiXiXiXiXiXiXiX",
"iXiXiXiXiXiXiXiXiXiXiXiXiXiXiXiXiXiXiXiXiXiXiXiXiXiXiXiXiXiXiXiXiXiXiXiXiXiXiXiXiXiXiXiXiXiXiXiXiXiXiXiXiXiXiXiXiXiXiXiXiXiXiXiX",
"iXiXiXiXiXiXiXiXiXiXiXiXiXiXiXiXiXiXiXiXiXiXiXiXiXiXiXiXiXiXiXiXiXiXiXiXiXiXiXiXiXiXiXiXiXiXiXiXiXiXiXiXiXiXiXiXiXiXiXiXiXiXiXiX",
"iXiXiXiXiXiXiXiXiXiXiXiXiXiXiXiXiXiXiXiXiXiXiXiXiXiXiXiXiXiXiXiXiXiXiXiXiXiXiXiXiXiXiXiXiXiXiXiXiXiXiXiXiXiXiXiXiXiXiXiXiXiXiXiX"
};
