/* XPM */
static char *_017ca3bdfbe4131c4ae0008cada6b60fD2pQXf36v8yFv7N[] = {
/* columns rows colors chars-per-pixel */
"64 64 224 2 ",
"   c #000000",
".  c #010903",
"X  c #061A0C",
"o  c #042906",
"O  c #052E11",
"+  c #083916",
"@  c #0A4D10",
"#  c #08451B",
"$  c #0B4A1D",
"%  c #304F00",
"&  c #177902",
"*  c #14760B",
"=  c #0D4C20",
"-  c #005423",
";  c #0D5322",
":  c #0E5B24",
">  c #105A26",
",  c #126127",
"<  c #116429",
"1  c #126B2D",
"2  c #167F25",
"3  c #13712F",
"4  c #0C7132",
"5  c #147432",
"6  c #167B34",
"7  c #137339",
"8  c #566120",
"9  c #6B773C",
"0  c #137A45",
"q  c #6E6A51",
"w  c #5A6266",
"e  c #736979",
"r  c #7B7B7B",
"t  c #8A0000",
"y  c #9F0000",
"u  c #893A03",
"i  c #833F17",
"p  c #A63F00",
"a  c #95002A",
"s  c #990030",
"d  c #9A0B31",
"f  c #980B3A",
"g  c #9D2E3E",
"h  c #A03C3E",
"j  c #9F5202",
"k  c #935810",
"l  c #A24B00",
"z  c #A15100",
"x  c #A3540E",
"c  c #8E4B2F",
"v  c #975337",
"b  c #A2522D",
"n  c #9E633D",
"m  c #A84843",
"M  c #A6514B",
"N  c #8E6C49",
"B  c #9A775D",
"V  c #9D795E",
"C  c #B0774E",
"Z  c #A97754",
"A  c #B67953",
"S  c #9D7A61",
"D  c #A17D62",
"F  c #198200",
"G  c #1B8D00",
"H  c #1D9300",
"J  c #1F9E00",
"K  c #1B9114",
"L  c #22AA02",
"P  c #24B100",
"I  c #22AA19",
"U  c #24B315",
"Y  c #188525",
"T  c #1D9A28",
"R  c #178236",
"E  c #188B36",
"W  c #17833A",
"Q  c #198639",
"!  c #198C3B",
"~  c #0F933C",
"^  c #1B933E",
"/  c #1C9938",
"(  c #1FA13C",
")  c #22AB25",
"_  c #24B325",
"`  c #23A937",
"'  c #24B434",
"]  c #23B33D",
"[  c #6B9536",
"{  c #0C9243",
"}  c #1B9542",
"|  c #1D9C43",
" . c #1A954A",
".. c #1C9B4A",
"X. c #1C9B55",
"o. c #239A42",
"O. c #379842",
"+. c #02AB46",
"@. c #1FA345",
"#. c #1FA44B",
"$. c #1BA94A",
"%. c #0AB64E",
"&. c #18B24D",
"*. c #1EA551",
"=. c #20A547",
"-. c #21AA42",
";. c #20A748",
":. c #21AC4A",
">. c #3CAB4C",
",. c #23B245",
"<. c #22B24D",
"1. c #28B648",
"2. c #24B84F",
"3. c #30B54E",
"4. c #20AC54",
"5. c #22B353",
"6. c #24BA51",
"7. c #22B45B",
"8. c #16926E",
"9. c #189C77",
"0. c #00AD67",
"q. c #1EAA69",
"w. c #1DAC76",
"e. c #1FB275",
"r. c #1FB27C",
"t. c #21B362",
"y. c #21B66D",
"u. c #21B370",
"i. c #6E8C44",
"p. c #48A649",
"a. c #52A44C",
"s. c #5AA04B",
"d. c #81807F",
"f. c #B78A68",
"g. c #B98C69",
"h. c #BF906B",
"j. c #C68757",
"k. c #C68B62",
"l. c #CB8F66",
"z. c #CC9566",
"x. c #C1916C",
"c. c #D1996B",
"v. c #D89B69",
"b. c #DCA476",
"n. c #E4A671",
"m. c #E6A874",
"M. c #E5AA7A",
"N. c #EAAE7D",
"B. c #EDB07E",
"V. c #707A95",
"C. c #887B90",
"Z. c #169C87",
"A. c #1EB488",
"S. c #08B392",
"D. c #1CB395",
"F. c #1EB996",
"G. c #1BB39C",
"H. c #3F8FBA",
"J. c #19B3A4",
"K. c #18B4AB",
"L. c #18B5AB",
"P. c #0DAEB4",
"I. c #16B3B4",
"U. c #19B7B6",
"Y. c #15B4BB",
"T. c #3BABA4",
"R. c #7F8081",
"E. c #58A593",
"W. c #5B80A1",
"Q. c #6F93B8",
"!. c #7398BB",
"~. c #0095D2",
"^. c #00B9CB",
"/. c #13B4C3",
"(. c #15B9C3",
"). c #11B6CB",
"_. c #13BBCB",
"`. c #00A1D6",
"'. c #00A6DB",
"]. c #0DB5D4",
"[. c #0AB6DC",
"{. c #0EBADA",
"}. c #11B8D7",
"|. c #06B6E3",
" X c #08B6E0",
".X c #00BCE7",
"XX c #09BAE2",
"oX c #01B7ED",
"OX c #00B7EF",
"+X c #0FB6ED",
"@X c #04BAED",
"#X c #12B5EB",
"$X c #00B7F1",
"%X c #00B7F3",
"&X c #00B7F5",
"*X c #00BAF5",
"=X c #0FB9F4",
"-X c #00B7F9",
";X c #00BAFB",
":X c #10BCF5",
">X c #1BBBF2",
",X c #6F9CC2",
"<X c #55A4D1",
"1X c #59A7D7",
"2X c #00C0FB",
"3X c #888D8F",
"4X c #928C87",
"5X c #918D8B",
"6X c #94918D",
"7X c #8B8192",
"8X c #888D90",
"9X c #8E9192",
"0X c #B3B3B3",
"qX c #BABABA",
"wX c #EDB281",
"eX c #F2B381",
"rX c #BFC0C1",
"tX c #C1C0C0",
"yX c #E2CDC9",
"uX c #E2D3D5",
"iX c #F5F0EE",
"pX c #FBF4F0",
"aX c #FFFBF7",
"sX c #FFFFFF",
/* pixels */
"OXOXOXOXOXOXOXOXOXOXOXOXOXOXOXOXOXOXOXOXOXOXOXOXOXOXOXOXOXOXOXOXOXOXOXOXOXOXOXOXOXOXOXOXOX%XOX%X%XOXOXOXOXOXOXOXOXOXOXOXOXOXOXOX",
"OXOXOXOXOXOXOXOXOXOXOXOXOXOXOXOXOXOXOXOXOXOXOXOXOXOXOXOXOXOXOXOXOXOXOXOXOXOXOXOXOXOXOXOX&X@X%X|.OXOXOXOXOXOXOXOXOXOXOXOXOXOXOXOX",
"OXOXOXOXOXOXOXOXOXOXOXOXOXOXOXOXOXOXOXOXOXOXOXOXOXOXOXOXOXOXOXOXOXOXOXOXOXOXOXOXOXOX%XOX[.I.].Y.%X%XOXOXOXOXOXOXOXOXOXOXOXOXOXOX",
"OXOXOXOXOXOXOXOXOXOXOXOXOXOXOXOXOXOXOXOXOXOXOXOXOXOXOXOXOXOXOXOXOXOXOXOXOXOXOXOXOX%X[./.D.t.t.r.r.].%XOXOXOXOXOXOXOXOXOXOXOXOXOX",
"OXOXOXOXOXOXOXOXOXOXOXOXOXOXOXOXOXOXOXOXOXOXOXOXOXOXOXOXOXOXOXOXOXOXOXOXOXOXOXOXOX%X[.A.e.) ,.,.P ].-XOXOXOXOXOXOXOXOXOXOXOXOXOX",
"OXOXOXOXOXOXOXOXOXOXOXOXOXOXOXOXOXOXOXOXOXOXOXOXOXOXOXOXOXOXOXOXOXOXOXOXOXOXOXOXOX%XXXH -. .:...E e. X%XOXOXOXOXOXOXOXOXOXOXOXOX",
"OXOXOXOXOXOXOXOXOXOXOXOXOXOXOXOXOXOXOXOXOXOXOXOXOXOXOXOXOXOXOXOXOXOXOXOXOXOXOXOXOX&X[.,.:.<.<.} 4.P K.&XOXOXOXOXOXOXOXOXOXOXOXOX",
"OXOXOXOXOXOXOXOXOXOXOXOXOXOXOXOXOXOXOXOXOXOXOXOXOXOXOXOXOXOXOXOXOXOXOXOXOXOXOXOX%XK.<.5.E <.<.<.E 7.[.&X%X%XOXOXOXOXOXOXOXOXOXOX",
"OXOXOXOXOXOXOXOXOXOXOXOXOXOXOXOXOXOXOXOXOXOXOXOXOXOXOXOXOXOXOXOXOXOXOXOXOX%XOX X].5.` ^ 2.:.<.,.5.G K. X(.OXOXOXOXOXOXOXOXOXOXOX",
"OXOXOXOXOXOXOXOXOXOXOXOXOXOXOXOXOXOXOXOXOXOXOXOXOXOXOXOXOXOXOXOXOXOXOXOX&XY.,.Y.Y.7.:.:.<.<.<.<.<.@...:.J D.&XOXOXOXOXOXOXOXOXOX",
"OXOXOXOXOXOXOXOXOXOXOXOXOXOXOXOXOXOXOXOXOXOXOXOXOXOXOXOXOXOXOXOXOXOXOXOX|.t.] _ _ ,.<.<.@.Q <.<.<.<.@.#.@ r.*X-X%XOXOXOXOXOXOXOX",
"OXOXOXOXOXOXOXOXOXOXOXOXOXOXOXOXOXOXOXOXOXOXOXOXOXOXOXOXOXOX%X%X%XOX&X[.P 7.<.5.5.<.<.<.<.^ :.<.<.^ <.<.5.' G.Y.[.&XOXOXOXOXOXOX",
"OXOXOXOXOXOXOXOXOXOXOXOXOXOXOXOXOXOXOXOXOXOXOXOXOXOXOXOXOX%XOX X).J.OX Xe.,.<.<.<.<.<.<.<.<.<.:.! ;.:.<.<.#.G & A. X%XOXOXOXOXOX",
"OXOXOXOXOXOXOXOXOXOXOXOXOXOXOXOXOXOXOXOXOXOXOXOXOXOXOXOXOX&X).7./.J.Y.).D.' 5.<.<.<.<.<.^ :.,.:.,.<.<.<.5.] G./ /.].%XOXOXOXOXOX",
"OXOXOXOXOXOXOXOXOXOXOXOXOXOXOXOXOXOXOXOXOXOXOXOXOXOXOXOXOX%Xq.K.U.& q.7.' :.@.@.<.:.<.! @.^ :.^ :.<.<.<.7.J ).].OX].&XOXOXOXOXOX",
"OXOXOXOXOXOXOXOXOXOXOXOXOXOXOXOXOXOXOXOXOXOXOXOXOXOXOXOXOXOXq.& ]  .,.,.<.@.} | <.<.:.Q :.<.:.<.^ :.:.<.<.T A.K.J.D. X%XOXOXOXOX",
"OXOXOXOXOXOXOXOXOXOXOXOXOXOXOXOXOXOXOXOXOXOXOXOXOXOXOXOXOXOXt.-...@.@.:.@.<.^ | 6.:.: : :.<.Q ! :.! <.<.=.6 T & H I.OXOX%XOXOXOX",
"OXOXOXOXOXOXOXOXOXOXOXOXOXOXOXOXOXOXOXOXOXOXOXOXOXOXOXOXOX%XY.) #.Q + ^ <.<.<.} } < + 1 :.,.1 6 <.<.:.| } @.#.:.W ~.;XOX|.%X%XOX",
"OXOXOXOXOXOXOXOXOXOXOXOXOXOXOX&X%XOXOXOXOXOXOXOXOXOXOXOX%X-X{.G  .} Q 5 <.:.<.} X + 6 3 6 3 5 ; :.}   O =.<.<.<.0 I./.Z.5.[.].OX",
"OXOXOXOXOXOXOXOXOXOXOXOXOX*X%X[.@X-XOXOXOXOXOXOXOXOXOX&X}.r.w.,.@.6.:.@.| 6.R X $ ; ! Q Q ; 5 } <.R 5 > Q <.<.:.# F J Y Y X.t. X",
"OXOXOXOXOXOXOXOXOXOXOXOX%X].D.P 9.(.%XOXOXOXOXOXOXOX&X{.@.H T <.<.<.<.<.<.| 6 W O ^ 6.<.<.| $ @.<.^ < } @.| | > 6 ..4.| #.T w.Y.",
"OXOXOXOXOXOXOXOXOXOXOX%XXXK G 0 * ) y.[.%XOXOXOXOXOX%XG.& 7.5.<.} Q <.} O 3 Q :.6 ^ <.<.:.@.+ 1 }   ; <.<.@.; ! 6.6.:.: | o 8.}.",
"OXOXOXOXOXOXOXOXOXOXOX&XK.'  .| W *.U  X&XOXOXOXOX%XXX*  .R :.6.2.^ <.: . $ 1 <.6.@.:.<.Q | @.| 6 , ; ! }   $ 1 @.@.^ : <.#.K ].",
"OXOXOXOXOXOXOXOXOXOX%X[. .E # :.6.} K Y.%XOXOXOXOXOX&XI.L  .:.Q | @.Q 1 5 : <.<.| Q :.<.} 2.<.:.@.^ 5 1 | R <   =.@.@.| | ` y. X",
"OXOXOXOXOXOXOXOXOXOX%X[. .o # :.,.5.#.K.%XOXOXOX%XOX&XU.I *.:.Q } } Q   5 3 ! :.3 $ @.^ O | :.<.<.2.R R 6.<.! ; : :.=.@.5 @.A.|.",
"OXOXOXOXOXOXOXOXOXOXOX*XK.* 4.5.] u.*X].OXOXOXOX%XOX&X[.).,.5.:.6 <.,.} Q R <.^ W } @.^ Q @.^ <.:.:.6 + @.<.,.6 < @.:. .U (.-X%X",
"OXOXOXOXOXOXOXOXOXOXOX%X[.P ' :.^ 4.e.J.%XOXOXOXOX%X]./. X) #.<.Q | <.1 6 2.<.:.@.^ :.2.| @.2.:.6.^ 5 6 5 =.<.<.Q | <.6.( 8.@XOX",
"OXOXOXOXOXOXOXOXOXOXOXOX XI.J.] | 0 J.e.OXOXOXOXOX&XA.P ).,.^ <.:.:.6 X < ,.<.<.<.<.<.<.@.1 :.<.R @.2.<.Q 1 :.<.:.<.<.<.W T _.%X",
"OXOXOXOXOXOXOXOXOXOX&X-XOXJ.r.<.I /.@XK.&X%XOXOXOXOXr.] q.@.1 ! :.<.@.| 6 :.<.<.@.! 6.} Q 1 :.} + > <.^ , = > :.<.@.:.7 T F.).%X",
"OXOXOXOXOXOXOXOXOX&X/.J.I.r.U 5.,.7.K.K.].].%XOX&X/.P 7.@.| R 6 <.,.6.} O :.<.<.@.:.<.:.^ 5 Q , @.^ } R X + < <.<.@.3 | 1.D.].%X",
"OXOXOXOXOXOXOXOXOX|.y.P U ] 5.:.^ / I & D.J.I. X%X%Xr.P ] 6.R ^ =.<.} + ; : :.<.,.@.:.} Q ^ o.E ^ Q ;.<.@.5 + } :.<.@.7 H /.;XOX",
"OXOXOXOXOXOXOXOX-X/.G 7.5.} @.:.6.Q 7 0 I /.[.|.OX&X/.G.U.H ..| :.<.@.! $ 1 } <.:.} :.3 ~ %.&.<.<.;.<.<.=.1 :.6 } 6.:.( 9. X%XOX",
"OXOXOXOXOXOXOXOX%XJ.) 5.<.<.o.=.$.^ R :  .y.<.G.&XOX%X%X/.q.` :.@.@.6.:.1 1 O 5 :.:.<.%.>.a.p.&.<.<.<.<.} ! <.<.| #.L U.-XOXOXOX",
"OXOXOXOXOXOXOX%XOX/.r.] $., &.{ O.o.E :.} 2 5.).%XOXOXOX-XY._ 5.^ @.^ ^ @.@.Q | :.<.&.>.8 O.i.$.:.<.<.:.<.@.:.| Q 5 / y.I.&XOXOX",
"OXOXOXOXOXOXOXOXOXG.U ,.-.4 a.p.s.9 +.` @ I Y.[.%XOXOXOXOXOXq.Y #.1 7 <.:.2.<.<.<.:.%.a.- 8 9 { :.<.<.<.@.<.=.;.Q $ ..L ) [.%XOX",
"OXOXOXOXOXOXOXOX%XOXF. .X.L G >.i.% & e.Z.U ).-XOXOXOXOXOXOXq./ 5.E F 2.#.:.<.:.} <.<.%.O.i.i.+.<.<.<.<.:.| <.| 6.| Y 8././.&XOX",
"OXOXOXOXOXOXOXOXOXOX*X[.{.P.T.[ v E.S.}.}.].%XOXOXOXOXOXOXOXt.' 6 t.(.t./ #.<.@.R <.%.a.c N <.^ :.<.<.<.<.} :.} ..X.o 9._.%XOXOX",
"OXOXOXOXOXOXOXOXOXOXOX%X=X;X1Xp x <X*X#X X&XOXOXOXOXOXOX%XOXY.U.F W @XJ.' 7 } 6.<.1.+.8 c 9 3.6 } <.,.<.<.<.R :.) G G I. XOXOXOX",
"OXOXOXOXOXOXOXOXOXOX%XOX+X*X<Xj z <X*X+X%XOXOXOXOXOXOXOXOXOX&X%X_.9.].@XI ' <.:.<.` 0.V.k q 3.&.^ 6.5.,.,. .{ 1.K.(._.*X%XOXOXOX",
"OXOXOXOXOXOXOXOXOXOXOXOX+X*X<Xz z <X*X+XOXOXOXOXOXOXOXOXOXOXOXOX&XOX%X%X/.r.:.R } & P.,Xl M [ +. ./ I t.e.P Y.OX%X-X&XOXOXOXOXOX",
"OXOXOXOXOXOXOXOXOXOXOXOX+X*X<Xz z <X*X+XOXOXOXOXOXOXOXOXOXOXOXOXOXOXOXOX-X XU q.E 1..XQ.z b C.S.P Z.J.A.@X/.|.&XOXOXOXOXOXOXOXOX",
"OXOXOXOXOXOXOXOXOXOXOXOX+X*X<Xz z <X*X+XOXOXOXOXOXOXOXOXOXOXOXOXOXOXOXOXOX%X/.@X_.#X*XQ.z z C.^.U.*X%XOX%X&X%XOXOXOXOXOXOXOXOXOX",
"OXOXOXOXOXOXOXOXOXOXOXOX#X*X<Xj j <X*X#XOXOXOXOXOXOXOXOXOXOXOXOXOXOXOXOXOXOX%XOX%X#X*XQ.z b C.-X=XOXOXOXOXOXOXOXOXOXOXOXOXOXOXOX",
"*X:X:X:X:X:X:X:X:X:X:X:X>X2X1Xx x 1X2X>X:X:X:X:X:X:X:X:X:X:X:X:X:X:X:X:X:X:X:X:X:X>X2X!.z b 7X2X>X:X:X:X:X:X:X:X:X:X:X:X:X:X:X*X",
"'.`.`.`.`.`.`.`.`.`.`.`.`.'.H.u u H.'.`.`.`.`.`.`.`.`.`.`.`.`.`.`.`.`.`.`.`.`.`.`.`.'.W.u u e '.`.`.`.`.`.`.`.`.`.`.`.`.`.`.`.'.",
"q 6X4X4X4X4X4X4X4X4X4X4X4X4X5X9X9X5X4X4X4X4X4X4X4X4X4X4X4X4X4X4X4X4X4X4X4X4X4X4X4X4X4X5X9X9X9X4X4X4X4X4X4X4X4X4X4X4X4X4X4X4X6Xq ",
"R.rXqXqXqXqXqXqXqXqXqXqXqXqXqXqXqXqXqXqXqXqXqXqXqXqXqXqXqXqXqXqXqXqXqXqXqXqXqXqXqXqXqXqXqXqXqXqXqXqXqXqXqXqXqXqXqXqXqXqXqXqXtXR.",
"r qX0X0X0X0X0X0X0X0X0X0X0X0X0X0X0X0X0X0X0X0X0X0X0X0X0X0X0X0X0X0X0X0X0X0X0X0X0X0X0X0X0X0X0X0X0X0X0X0X0X0X0X0X0X0X0X0X0X0X0X0XqXr ",
"r qX0X0X0X0X0X0X0X0X0X0X0X0X0X0X0X0X0X0X0X0X0X0X0X0X0X0X0X0X0X0X0X0X0X0X0X0X0X0X0X0X0X0X0X0X0X0X0X0X0X0X0X0X0X0X0X0X0X0X0X0XqXr ",
"d.tXqXqXqXqXqXqXqXqXqXqXqXqXqXqXqXqXqXqXqXqXqXqXqXqXqXqXqXqXqXqXqXqXqXqXqXqXqXqXqXqXqXqXqXqXqXqXqXqXqXqXqXqXqXqXqXqXqXqXqXqXtXd.",
"w 9X3X8X8X8X8X8X8X8X8X8X8X3X8X8X3X8X8X8X8X8X8X8X8X8X8X8X8X8X8X8X8X8X8X8X8X9X8X8X8X8X3X8X9X9X9X3X3X8X8X8X8X3X8X9X3X8X8X8X8X3X9Xw ",
"c.z.z.z.z.z.z.z.z.z.z.z.z.c.Z Z c.z.z.z.z.z.z.z.z.z.z.z.z.z.z.z.z.z.z.z.z.N z.z.z.z.c.C i i n c.z.z.z.z.z.z.k.N c.z.z.z.z.z.z.c.",
"N.N.N.N.N.N.N.N.N.N.N.N.N.eXx.g.eXN.N.N.N.N.N.N.N.N.N.N.N.N.N.N.N.N.N.N.N.S B.N.N.N.wXl.v v A wXN.N.N.N.N.B.M.D eXN.N.N.N.N.N.N.",
"M.M.M.M.M.M.M.M.M.M.M.M.M.N.h.f.N.M.M.M.M.M.M.M.M.M.M.M.M.M.M.M.M.M.M.M.M.B M.M.M.M.N.k.v v A N.M.M.M.M.M.M.b.V N.M.M.M.M.M.M.M.",
"M.M.M.M.M.M.M.M.M.M.M.M.M.N.x.f.B.M.M.M.M.M.M.M.M.M.M.M.M.M.M.M.M.M.M.M.M.B M.M.M.M.N.k.v v A N.M.M.M.M.M.M.b.V N.M.M.M.M.M.M.M.",
"M.M.M.M.M.M.M.M.M.M.M.M.M.N.x.f.B.M.M.M.M.M.M.M.M.M.M.M.M.M.M.M.M.M.M.M.M.B M.M.M.M.N.k.v v A N.M.M.M.M.M.M.b.V N.M.M.M.M.M.M.M.",
"M.M.M.M.M.M.M.M.M.M.M.M.M.N.x.f.B.M.M.M.M.M.M.M.M.M.M.M.M.M.M.M.M.M.M.M.M.B M.M.M.M.N.k.v v A N.M.M.M.M.M.M.b.V N.M.M.M.M.M.M.M.",
"M.M.M.M.M.M.M.M.M.M.M.M.M.N.x.f.B.M.M.M.M.M.M.M.M.M.M.M.M.M.M.M.M.M.M.M.M.B M.M.M.M.N.k.v v A N.M.M.M.M.M.M.b.V N.M.M.M.M.M.M.M.",
"M.M.M.M.M.M.M.M.M.M.M.M.M.N.x.f.N.M.M.M.M.M.M.M.M.M.M.M.M.M.M.M.M.M.M.M.M.S N.M.M.M.wXk.c c C N.M.M.M.M.M.N.b.S N.M.M.M.M.M.M.M.",
"N.N.N.N.N.N.N.N.N.N.N.N.M.B.x.g.B.M.N.N.N.N.N.N.N.N.N.N.N.N.N.m.n.n.n.n.n.N m.n.n.n.m.v.A j.k.m.n.n.n.n.n.n.v.N m.n.n.n.n.n.n.n.",
"m m m m m m m m m m m m m m h h m m m m m m m m m m m m m M y yXaXpXpXpXpXiXpXpXpXpXpXpXpXpXpXpXpXpXpXpXpXpXpXiXpXpXpXpXpXpXpXpX",
"a a a a a a a a a a a a a a a a a a a a a a a a a a a a a f t uXsXsXsXsXsXsXsXsXsXsXsXsXsXsXsXsXsXsXsXsXsXsXsXsXsXsXsXsXsXsXsXsX",
"d d d d d d d d d d d d d d d d d d d d d d d d d d d d d g t uXsXsXsXsXsXsXsXsXsXsXsXsXsXsXsXsXsXsXsXsXsXsXsXsXsXsXsXsXsXsXsXsX",
"s s s s s s s s s s s s s s s s s s s s s s s s s s s s s g t uXsXsXsXsXsXsXsXsXsXsXsXsXsXsXsXsXsXsXsXsXsXsXsXsXsXsXsXsXsXsXsXsX"
};
