/* XPM */
static char *_9c6413f175f42d0baf52648d6383eac7omd2CgqRyRvBQEo[] = {
/* columns rows colors chars-per-pixel */
"64 64 229 2 ",
"   c #000500",
".  c #180200",
"X  c #011902",
"o  c #260600",
"O  c #2E190E",
"+  c #341504",
"@  c #351807",
"#  c #381A09",
"$  c #032708",
"%  c #013506",
"&  c #003D00",
"*  c #112F14",
"=  c #083A17",
"-  c #30331C",
";  c #153E24",
":  c #353726",
">  c #7E0000",
",  c #512C14",
"<  c #4A2D21",
"1  c #493525",
"2  c #463628",
"3  c #4B3829",
"4  c #593626",
"5  c #533A2B",
"6  c #4F3C30",
"7  c #623A27",
"8  c #643B29",
"9  c #6B3E2B",
"0  c #004400",
"q  c #004C00",
"w  c #004F0F",
"e  c #005300",
"r  c #005A02",
"t  c #054716",
"y  c #00441C",
"u  c #024C1C",
"i  c #0D4C1E",
"p  c #14441E",
"a  c #055319",
"s  c #015B1D",
"d  c #18531F",
"f  c #026404",
"g  c #086417",
"h  c #044D21",
"j  c #174724",
"k  c #144D23",
"l  c #005423",
"z  c #0D5522",
"x  c #025B24",
"c  c #0C5B23",
"v  c #135425",
"b  c #125B26",
"n  c #1A5728",
"m  c #145D29",
"M  c #1B5A31",
"N  c #2C4E26",
"B  c #345428",
"V  c #076525",
"C  c #0C6425",
"Z  c #0E6B29",
"A  c #14642A",
"S  c #16652A",
"D  c #136B2C",
"F  c #13722E",
"G  c #18702D",
"H  c #1B6735",
"J  c #1B6C33",
"K  c #097032",
"L  c #167531",
"P  c #1B7434",
"I  c #197736",
"U  c #1A7C36",
"Y  c #1D7D39",
"T  c #226A35",
"R  c #24753B",
"E  c #237C3B",
"W  c #484726",
"Q  c #5B462A",
"!  c #4D502E",
"~  c #64422F",
"^  c #6D412C",
"/  c #66482B",
"(  c #73432E",
")  c #75482D",
"_  c #684831",
"`  c #754631",
"'  c #784832",
"]  c #695833",
"[  c #765534",
"{  c #34504C",
"}  c #286A45",
"|  c #2B704A",
" . c #326752",
".. c #3D7061",
"X. c #44494A",
"o. c #495658",
"O. c #4C585A",
"+. c #585959",
"@. c #456F6D",
"#. c #4B7B76",
"$. c #707171",
"%. c #940003",
"&. c #8C2400",
"*. c #8F2A00",
"=. c #902E00",
"-. c #933400",
";. c #9A2016",
":. c #9A0027",
">. c #99002F",
",. c #990630",
"<. c #990B32",
"1. c #911A33",
"2. c #902F2E",
"3. c #903030",
"4. c #9A3B35",
"5. c #A44900",
"6. c #A74A00",
"7. c #9B532B",
"8. c #814B34",
"9. c #994B3C",
"0. c #885439",
"q. c #8D543A",
"w. c #915337",
"e. c #92563C",
"r. c #935A3E",
"t. c #9D5C3D",
"y. c #A1562E",
"u. c #A05630",
"i. c #A15D3F",
"p. c #975C43",
"a. c #9D5D42",
"s. c #964D50",
"d. c #A34B46",
"f. c #A75A42",
"g. c #A25F42",
"h. c #9D6144",
"j. c #946549",
"k. c #9F6148",
"l. c #9E784B",
"z. c #A46143",
"x. c #A96345",
"c. c #A4654B",
"v. c #A9674B",
"b. c #A5684D",
"n. c #AB6A4E",
"m. c #AD6D52",
"M. c #AF7055",
"N. c #B07156",
"B. c #B3775E",
"V. c #93766C",
"C. c #996C72",
"Z. c #009A00",
"A. c #148A24",
"S. c #1E843B",
"D. c #22843D",
"F. c #21893E",
"G. c #268540",
"H. c #2A8445",
"J. c #248D41",
"K. c #298E45",
"L. c #269244",
"P. c #289447",
"I. c #2C9549",
"U. c #2B9C4B",
"Y. c #30984E",
"T. c #348553",
"R. c #329B51",
"E. c #2EA24F",
"W. c #2FA550",
"Q. c #31A652",
"!. c #33AC55",
"~. c #36AD58",
"^. c #34B057",
"/. c #36B359",
"(. c #39B55B",
"). c #37B85B",
"_. c #39BA5D",
"`. c #3EB364",
"'. c #3BBE60",
"]. c #78894B",
"[. c #4B8777",
"{. c #3DC463",
"}. c #3FC966",
"|. c #40C067",
" X c #40CA67",
".X c #42CE69",
"XX c #44D46D",
"oX c #46D86F",
"OX c #48DC72",
"+X c #B9817E",
"@X c #547D83",
"#X c #588D8A",
"$X c #628E97",
"%X c #639599",
"&X c #58B58A",
"*X c #66A39F",
"=X c #689CA2",
"-X c #6DA6A9",
";X c #76AAB3",
":X c #79B6BA",
">X c #70CDAE",
",X c #7FB8C4",
"<X c #858484",
"1X c #979898",
"2X c #9A9A9A",
"3X c #99A3A5",
"4X c #9DB1BA",
"5X c #C0959C",
"6X c #D1AEB2",
"7X c #80BBC6",
"8X c #80C0C5",
"9X c #85C3CD",
"0X c #8AC6D3",
"qX c #8ECDDB",
"wX c #8DD3D9",
"eX c #90E2DD",
"rX c #95D4E4",
"tX c #99D7E8",
"yX c #97D9E8",
"uX c #99D9EA",
"iX c #9CDFF1",
"pX c #9BE1F3",
"aX c #A1E3F6",
"sX c #D8C8C4",
"dX c #DBCDC9",
"fX c #DAD5D3",
"gX c #ECE8E8",
"hX c #F8F2F3",
"jX c #FEFEFE",
/* pixels */
"uXuXuXuXuXuXuXuXuXuXuXuXuXuXuXuXuXuXuXuXuXuXuXuXuXuXuXuXuXuXuXuXuXuXuXuXuXuXuXuXuXuXuXuXuXuXuXuXuXuXuXuXuXuXuXuXuXuXuXuXuXuXuXuX",
"uXuXuXuXuXuXuXuXuXuXuXuXuXuXuXuXuXuXuXuXuXuXuXuXuXuXuXuXuXuXuXuXuXuXuXuXuXuXuXuXuXuXuXuXuXuXuXuXuXuXuXuXuXuXuXuXuXuXuXuXuXuXuXuX",
"uXuXuXuXuXuXuXuXuXuXuXuXuXuXuXuXuXuXuXuXuXuXuXuXuXuXuXuXuXuXuXuXuXuXuXuXuXuXuXuXuXuXuXuXtXtXuXtXtXrXuXuXuXuXuXuXuXuXuXuXuXuXuXuX",
"uXuXuXuXuXuXuXuXuXuXuXuXuXuXuXuXuXuXuXuXuXuXuXuXuXuXuXuXuXuXuXuXuXuXuXuXuXuXuXuXuXuXuXuXuXuXrXiXpXaXrXuXiXuXuXuXuXuXuXuXuXuXuXuX",
"uXuXuXuXuXuXuXuXuXuXuXuXuXuXuXuXuXuXuXuXuXuXuXuXuXuXuXuXuXuXuXuXuXuXuXuXuXuXuXuXuXuXuXuXqX9XaX,X=X-X;X=X9XiXuXuXuXuXuXuXuXuXuXuX",
"uXuXuXuXuXuXuXuXuXuXuXuXuXuXuXuXuXuXuXuXuXuXuXuXuXuXuXuXuXuXuXuXuXuXuXuXuXuXuXuXuXyXiX9X#XqX$XX & X  .M -XuXuXuXuXuXuXuXuXuXuXuX",
"uXuXuXuXuXuXuXuXuXuXuXuXuXuXuXuXuXuXuXuXuXuXuXuXuXuXuXuXuXuXuXuXuXuXuXuXuXuXuXuXuXuXrX%X#.@.X M H H 0  .-XrXuXuXuXuXuXuXuXuXuXuX",
"uXuXuXuXuXuXuXuXuXuXuXuXuXuXuXuXuXuXuXuXuXuXuXuXuXuXuXuXuXuXuXuXuXuXuXuXuXuXuXuXuXrX#.& X 0 H D F c M r } 0XqXuXuXuXuXuXuXuXuXuX",
"uXuXuXuXuXuXuXuXuXuXuXuXuXuXuXuXuXuXuXuXuXuXuXuXuXuXuXuXuXuXuXuXuXuXuXuXuXuXuXrXaX:X$ ..t M F F F S z L F 7X0XuXtXuXuXuXuXuXuXuX",
"uXuXuXuXuXuXuXuXuXuXuXuXuXuXuXuXuXuXuXuXuXuXuXuXuXuXuXuXuXuXuXuXuXuXuXuXuXuXuXuXqX;X; w H b C C C F C S P e 7XaXuXuXuXuXuXuXuXuX",
"uXuXuXuXuXuXuXuXuXuXuXuXuXuXuXuXuXuXuXuXuXuXuXuXuXuXuXuXuXuXuXuXuXuXuXuXuXuXuXqX7X#XJ S D x U.!.!.D U C H q ;X8X:XrXuXuXuXuXuXuX",
"uXuXuXuXuXuXuXuXuXuXuXuXuXuXuXuXuXuXuXuXuXuXuXuXuXuXuXuXuXuXuXuXuXuXuXuXuXuXuX@X#.D V L z E {.{.{././.u i b V g r *XaXuXuXuXuXuX",
"uXuXuXuXuXuXuXuXuXuXuXuXuXuXuXuXuXuXuXuXuXuXuXuXuXuXuXuXuXuXuXuXuXuXuXuXuXuX%X$ q D F D F Q.U.s S./.{.P P z b S i } [.rXuXuXuXuX",
"uXuXuXuXuXuXuXuXuXuXuXuXuXuXuXuXuXuXuXuXuXuXuXuXuXuXuXuXuXuXuXuXuXuXuXtXaX0X$ H m F D v Y Q.Q.!.^.{.Q.E.!.a L F D t 0 [.tXuXuXuX",
"uXuXuXuXuXuXuXuXuXuXuXuXuXuXuXuXuXuXuXuXuXuXuXuXuXuXuXuXuXuXuXuXuXuXuXuXqX..a b C F D b Y W._.U..X'.U. XR.m F v D D M q ,XiXtXuX",
"uXuXuXuXuXuXuXuXuXuXuXuXuXuXuXuXuXuXuXuXuXuXuXuXuXuXuXuXuXuXuXuXuXuXuXuX9XH t D i a Z c U /.!.).{.'.}.{.!.P C D.E V m j q 9XuXuX",
"uXuXuXuXuXuXuXuXuXuXuXuXuXuXuXuXuXuXuXuXuXuXuXuXuXuXuXuXuXuXuXuXuXuXuXqX} } t z L.E.P E J.Z {.XX{.E.XXOXE.s L L.L.S P e @.uXuXuX",
"uXuXuXuXuXuXuXuXuXuXuXuXuXuXuXuXuXuXuXuXuXuXuXuXuXuXuXuXuXuXuXuXuXuXuX0Xe m m P.(.Q.!.P.'./..XoXoXoX X.X}.F C !.U.D D S k 7XuXuX",
"uXuXuXuXuXuXuXuXuXuXuXuXuXuXuXuXuXuXuXuXuXuXuXuXuXuXuXuXuXuXuXuXuXuXiX[.r m E !.~.Q.{.oX X'.P.!._.oX_.{.OXU.S /.s Z F J q  .[.qX",
"uXuXuXuXuXuXuXuXuXuXuXuXuXuXuXuXuXuXuXuXuXuXuXuXuXuXuXuXuXuXuXuXuXuXrX..e D D._.Q.{..XL P.oX{.U _.XX{._./..X/. X/.F.Z F L m % :X",
"uXuXuXuXuXuXuXuXuXuXuXuXuXuXuXuXuXuXuXuXuXuXuXuXuXuXuXuXuXuXuXuXuXuX0X .a S D _.P.(.XXE.^.oX_.U.P._.oXoXE.b G.U.S P.Z F D H 0 8X",
"uXuXuXuXuXuXuXuXuXuXuXuXuXuXuXuXuXuXuXuXuXuXuXuXuXuXuXuXuXuXuXuXuXiX:Xe M S = _.!.Q.U._.U._.P.^.U _.W.P./.E.{.!.t = z C F S a  .",
"uXuXuXuXuXuXuXuXuXuXuXuXuXuXuXuXuXuXuXuXuXuXuXuXrX7XiXtXuXuXuXuXuXuXqX-XV k b U .X}._.F._./.L _.!./.I.F F.XX_.V L b i z D D k 0 ",
"uXuXuXuXuXuXuXuXuXuXuXuXuXuXuXrX0XuXuXuXuXuXuXuX@.@.uXuXuXuXuXuXuXuXrXqXf v D V E.OXXX_.!.E.J..XU.{.OXS.s /.J.s ^.U S S D D D ; ",
"uXuXuXuXuXuXuXuXuXuXuXuXuXuXiXqX%XpXrXuXuXuXuX[.&   7XiXuXuXuXuXuXuX-X@.@.& T S I.!.^.D.^.F.L.J.oX(./.P.L ^.P.Z _.D.Z F F F D b ",
"uXuXuXuXuXuXuXuXuXuXuXuXuXuXuX@.@.uXuXuXuXuXuX`.% M & #XuXuXuXrXqX$Xe 0 H u U.}.S.!.I.!.D.Q.OXE.!.!.F.!.E.E.oXJ.P.P.C S b D D S ",
"uXuXuXuXuXuXuXuXuXuXuXuXuXiX#.e   [.uXuXuXeX&X} % U.R   9XuXuX:XR  .& H Z U L {.{.I.S.D.J F./.Y E.!.{.{.F.!.E.^.L.J.C S D b b b ",
"uXuXuXuXuXuXuXuXuXuXuXuXuX9Xa '.Y.  &XyXuXwXZ.H.I.Q.Y.g #.uXiX8Xq & S S C D.J.u /./.L.t S Z U.{.}.{.!.Q.XX/.U.(.(.I.Z F F D b k ",
"uXuXuXuXuXuXuXuXuXuXuXuXrXq P {.R.X [.>XwX|.R H. XK.R.r :XaX7Xq i M S S S z S.E.C P m J.'.L F._.E.XX!.Q.I.}.{._.P.!./.Z D S D v ",
"uXuXuXuXuXuXuXuXuXuXuXuX*X0 '._.E T * _.eX;Xf Q.E K.Q.A.#.9X0 C L D C c b w /.P b G.S.L..X/.w J./.I.S.{.{./.{.Q.V P D.F S D F F ",
"uXuXuXuXuXuXuXuXuXuXuX9X0 J ~.% P.I.R.f >X*Xf Q.Q.G._.^.j  .J L F Z Y K.Y E.P D.L.^./.F !./.I.Q.U.!.D P I.E.V P.L.I.V J D D D F ",
"uXuXuXuXuXuXuXuXuXuXiX9Xj G._.R._.i I.j $ % Y..X.X X!.Q.T.{ | C m i K.K.!./.U S.L.U S.U.P.w _.{.w U.XX/.U.E.!.!./.V E.D b D F D ",
"tXtXtXtXtXtXtXtXtXtXuX#X0 ~.!././.u k = ; = I.|.OXK.= n %X0 C m b K._.U._.V D {.U L W.!.oXL.U._.L '._.!._..X!./.I.S.L L D D D S ",
"pXiXpXpXiXiXpXiXiXpXrX  M Q./. XXXY m = X = $ m E G.J.T f v b A C K.^.F P.P F I.J.{./.{.P.{.XX_.{..XC {.L.S.'.J.E.XXS.V F F D b ",
"4X4X4X4X4X4X4X4X4X4X;XX S E Q.!.XX{.Q.  $ j J b i v S ~.H = v m C U.I.G.w J.{.I.!.!./.{.I.!././.K._.OX^.F C C !.F.J.L.F.Z C D S ",
"5.5.5.5.5.5.5.5.5.5., V _.^.(./.{.{.XXJ   = v k = I.Y.E * = k S S P D.!.E.!./.{.J z {.oX{.J.m J i Y E C F F L Y s C /./.U /.!.c ",
"c.c.c.b.m.c.c.c.b.j.: Y XXE.Q.OX'.'.oXR   $ * * $ Y K y v j ; S b L U.w !.Q.Z {.Y k S J.G.D S v D k i S S m i E D.(.{.F.P Q.U D ",
"z.z.i.n.n.g.z.g.x.0.$ T /.'.W.}.J.(.R.S $ y = u : < B B k x l k b G Y I.J.F.U.J S I.= c Z b S D b m S b m D i K.I.D.s s L J.E.C ",
"g.z.m.n.z.z.x.z.x.Q = K.E.Q.!.!.XXoX'.n = - [ Q _ 3 r.h.r.0.! u G D v c G.U.c v m v v m S v S b S b D v v S m i J {.L./.D.Q.L C ",
"z.N.x.z.M.m.p.e.0.y n k u U E. XXXE p k h - t.t.1 - r.x.x.a.] l y Z D F S d n S F m b S n c l n b v D Z K (.z D S G Q.R S s D i ",
"z.v.g.x.e.( < 9 - $ = h n v T |.E = n n n = 0.x.e.q.g.z.z.r.] k W N b c l l l n v h n l l k N y p k l n B K T m p O = u V J b v ",
"g.g.z.w.4 4 ' ` ^ Q ' W y y l z = h y y u % [ x.z.z.z.z.g.g.v.n.r.W u B [ ] ] y p Q y W N r.r.j B B N Q f./ l y x ].0.] ] y h x ",
"z.z.z.8.e.e.q.` 7 ' g.z.[ [ Q 2 j W e.e.e.e.a.z.g.z.z.g.z.m.c.0.9 8 1 Q g.z.x.r.] h.r.h.h.x.e.1 5 5 3 ~ z.z.9.].].l.f.x.x.] B ! ",
"z.z.z.z.z.z.z.z.g.' ` ` z.x.r.3 3 r.x.z.z.z.z.g.v.m.z.c.M.p.( 4 4 ( ( 8 4 8 8.z.x.z.z.z.z.z.r.2 5 5 3 ~ z.g.f.z.z.f.z.g.z.z.z.z.",
"z.z.z.g.z.c.g.z.z.z.x.` 8 x.r.2 3 e.z.g.n.n.g.z.c.z.g.z.z.w.8.< 8 8.( ( ( ^ 4 7 q.z.m.v.g.x.r.2 5 5 3 ~ z.z.z.g.g.z.z.z.g.g.z.z.",
"z.z.g.z.N.n.g.z.z.g.z.a.( ^ e.3 3 r.z.z.c.g.z.z.g.g.z.z.a.q.4 4 8 ^ ( ` ` ( ' ` 4 5 z.z.z.z.r.2 5 5 3 ~ z.z.z.z.z.z.z.g.n.c.g.z.",
"z.g.z.m.z.g.z.g.g.v.z.z.z.^ < 2 : e.z.g.g.z.z.z.z.z.z.z.z.b.0.9 8 9 4 9 ` 4 ^ 8 ( ( t.z.g.z.r.2 5 5 3 ~ z.z.z.z.z.z.g.m.n.z.z.z.",
"z.z.m.z.g.z.g.x.m.N.z.g.z.x.q.q.q.a.z.z.z.z.z.z.z.z.z.z.z.x.z.z.t.( ` w.' 8 4 ^ ` r.z.v.z.z.r.2 5 5 3 ~ z.z.z.z.z.g.m.N.g.g.z.z.",
"z.z.z.z.z.z.z.z.z.g.g.z.z.g.z.z.x.z.z.z.z.z.z.g.g.g.g.g.z.z.g.z.z.z.z.z.z.a.' 8 8 4 p.n.g.x.r.2 5 5 3 ~ z.z.z.z.z.z.z.g.z.z.z.z.",
"z.z.z.g.g.z.z.z.g.z.z.z.z.z.z.g.g.z.z.z.z.z.z.x.c.x.c.m.N.n.g.z.z.z.z.g.z.z.x.8.< 0.` q.z.z.r.2 5 5 3 ~ z.z.z.z.z.z.g.z.z.z.z.z.",
"z.z.g.n.c.g.z.z.z.z.z.z.z.z.g.c.M.m.g.z.z.z.z.n.m.m.n.z.z.z.z.z.z.z.z.z.z.z.g.x.q.9 ` < q.x.e.2 5 5 3 ~ z.z.z.z.z.z.z.z.z.z.z.z.",
"z.g.c.N.z.g.z.z.z.z.z.z.z.g.z.N.c.g.g.z.z.z.z.g.g.g.g.g.g.z.z.z.z.z.z.z.z.z.z.g.x.' < 4 4 e.r.2 5 5 3 ~ z.g.z.z.z.z.z.z.z.z.z.z.",
"z.z.z.z.z.z.z.z.z.z.z.z.z.z.z.z.z.z.z.z.z.z.z.z.z.z.z.z.z.z.z.z.z.z.z.z.z.z.z.z.x.g.w.4 , 8 q.1 5 5 1 ~ x.z.z.z.z.z.z.z.z.z.z.z.",
"p.p.p.p.p.p.p.p.p.p.p.p.p.p.p.p.p.p.p.p.p.p.p.p.p.p.p.p.p.p.p.p.p.p.p.p.p.p.p.p.p.p.p.q.' 4 8 6 6 6 3 ~ p.p.p.p.p.p.p.p.p.p.p.p.",
"{ O.O.O.O.O.O.O.O.O.O.O.O.O.O.O.O.O.O.O.O.O.O.O.O.O.O.O.O.O.O.O.O.O.O.O.O.O.O.O.O.{ o.$.O.O.X.+.+.+.+.+.O.O.O.O.O.O.O.O.O.O.O.X.",
"$.2X2X2X2X2X2X2X2X2X2X2X2X2X2X2X2X2X2X2X2X2X2X2X2X2X2X2X2X2X2X2X2X2X2X2X2X2X2X2X2X<X+.2X2X2X2X2X2X2X2X2X2X2X2X2X2X2X2X2X2X2X2X$.",
"X.+.- + @ @ @ @ @ @ + o o @ @ @ @ @ @ @ @ @ @ @ @ @ @ @ @ @ @ @ @ @ @ # . o # @ + O 1X+.o # + @ @ + + @ @ @ @ @ @ @ # . o # + < ",
"<X2X7.g.t.t.t.t.t.t.g.n.v.t.i.t.t.t.t.t.t.t.t.t.t.t.t.t.t.t.t.t.i.t.t.i.w.( t.i.i.8.3XV.y.a.t.i.t.g.g.t.t.t.t.t.t.t.i.e.( t.i.t.",
"<X1X7.g.t.t.t.t.g.t.t.c.z.t.t.z.g.t.t.t.t.g.z.g.t.z.m.t.t.g.g.t.t.a.z.t.i.w.( t.z.8.2XV.u.t.t.t.g.z.t.t.t.t.z.z.t.t.t.t.w.( t.i.",
"<X1Xt.c.k.k.k.b.c.c.k.a.k.k.c.b.k.k.k.k.b.c.c.k.k.m.m.k.c.b.k.k.c.B.M.a.t.i.w.9 w.8.2XV.7.t.t.a.z.t.t.t.t.g.g.t.t.t.t.n.g.8.9 t.",
"$.<X%.*.*.*.*.*.*.*.*.*.*.*.=.*.*.*.*.=.-.*.*.*.*.&.&.=.-.*.*.=.5.-.&.7.t.h.i.q.^ 4 3XV.7.t.t.h.t.t.t.t.t.t.t.t.t.z.m.z.t.t.) ^ ",
"fXgXsXdXdXdXdXdXdXdXdXdXdXdXdXdXdXdXdXdXdXdXdXdXdXdXdXdXdXdXdXdXdXdXdX+X;.;.d.9.3.1.C.s.4.4.4.4.4.4.4.4.4.4.4.4.4.4.4.4.4.4.4.2.",
"6XhXjXjXjXjXjXjXjXjXjXjXjXjXjXjXjXjXjXjXjXjXjXjXjXjXjXjXjXjXjXjXjXjXjXhXjX5X> %.,.,.%.:.,.,.,.>.>.>.>.>.>.>.>.>.>.>.>.>.>.>.>.,.",
"%.%.5XhXjXjXjXjXjXjXjXjXjXjXjXjXjXjXjXjXjXjXjXjXjXjXjXjXjXjXjXjXjXjXjXjXjXjXgX6X%.1.<.<.,.,.<.,.,.,.,.,.,.,.,.,.,.,.,.,.,.,.,.,."
};
